<svg width="168" height="168" viewBox="0 0 168 168" fill="none" xmlns="http://www.w3.org/2000/svg">
<path d="M76.9727 83.0333C76.9179 83.0163 76.8647 82.9961 76.8136 82.9717C61.5438 77.2363 54.4351 87.939 54.4137 87.97C54.2636 88.1886 54.0431 88.3617 53.7715 88.4493L35.6413 94.3053C34.6161 94.6366 33.7826 95.2824 33.2286 96.1124C32.6766 96.9391 32.4004 97.9579 32.4866 99.0387L33.6618 113.798C33.6886 114.129 33.7875 114.427 33.9499 114.676C34.1136 114.927 34.3465 115.138 34.6383 115.296C34.9335 115.454 35.2377 115.533 35.5349 115.531C35.8272 115.529 36.1302 115.446 36.4265 115.281L36.4274 115.283L54.7204 105.13C54.9129 105.02 55.1371 104.96 55.375 104.968C55.4203 104.97 71.2149 105.58 77.1092 106.687C82.3398 107.67 84.5584 105.745 84.565 105.74L84.5662 105.742C84.6276 105.69 84.6948 105.644 84.7678 105.605L102.447 95.9756L77.8784 95.9756V95.9723C77.7696 95.9723 77.6595 95.9579 77.5498 95.9273C76.6199 95.6678 76.0016 95.0316 75.6887 94.2784C75.5061 93.8388 75.431 93.3587 75.4628 92.8956C75.4949 92.4188 75.6421 91.9474 75.9018 91.5396C76.2835 90.9401 76.8845 90.4948 77.6978 90.3712L93.5798 85.4072C94.4471 85.1362 94.9883 84.3979 95.1524 83.5885C95.2262 83.2241 95.2241 82.8453 95.1413 82.4871C95.0654 82.1578 94.9166 81.8483 94.6915 81.5918C94.1725 80.9997 93.1985 80.6684 91.6885 80.9378L78.237 83.3373V83.3353C78.0181 83.3737 77.7869 83.3539 77.5659 83.265C77.3664 83.1845 77.1694 83.1084 76.9727 83.0333V83.0333ZM76.1005 80.111V63.8639C76.1005 62.2501 76.7584 60.7838 77.8182 59.7216C78.8776 58.6594 80.3406 58 81.9511 58L132.149 58C133.76 58 135.222 58.6594 136.282 59.7216C137.342 60.7838 138 62.2501 138 63.8639V90.1118C138 91.726 137.342 93.1922 136.282 94.254C135.222 95.3162 133.76 95.9756 132.149 95.9756H107.608L86.0473 107.718C85.4669 108.156 82.3872 110.195 76.6549 109.118C71.416 108.133 57.9283 107.546 55.6268 107.451L37.6137 117.448L37.615 117.45C36.9624 117.812 36.2588 117.995 35.5444 118C34.835 118.004 34.1297 117.829 33.4697 117.474C32.8052 117.117 32.2693 116.625 31.8823 116.031C31.4935 115.435 31.2586 114.744 31.1984 113.992L30.0232 99.2325C29.8921 97.5882 30.3228 96.0227 31.1807 94.7374C32.0364 93.455 33.3172 92.4597 34.8873 91.9524L52.6337 86.2203C54.0905 84.3136 61.7499 75.5246 76.1005 80.111V80.111ZM107.293 93.4967H107.304H132.149C133.076 93.4967 133.921 93.1154 134.534 92.5014C135.146 91.8875 135.527 91.0414 135.527 90.1118V71.1068L78.5738 71.1068V80.7613L91.2635 78.4973C93.7521 78.0535 95.4987 78.7609 96.5465 79.9557C97.0494 80.5291 97.3804 81.2121 97.547 81.9351C97.6187 82.2446 97.6587 82.5623 97.669 82.882H101.352C101.693 82.882 101.97 83.1597 101.97 83.5018C101.97 83.8439 101.693 84.1215 101.352 84.1215H97.5573C97.3648 85.0267 96.9307 85.8877 96.272 86.5678C96.3585 86.6744 96.4105 86.8103 96.4105 86.9582C96.4105 87.3003 96.1335 87.5779 95.7922 87.5779H94.8243C94.661 87.6502 94.4908 87.7147 94.3139 87.7696L78.3388 92.7634C78.2469 92.7919 78.155 92.8092 78.0631 92.8163C78.021 92.8249 77.9934 92.8435 77.979 92.8663C77.9493 92.9125 77.9316 92.9807 77.9262 93.06C77.92 93.1526 77.934 93.2464 77.9687 93.3294C77.9963 93.3959 78.0408 93.455 78.1018 93.4967L107.293 93.4967V93.4967ZM122.998 81.4567C123.913 81.4567 124.775 81.6872 125.528 82.0938C125.83 81.9314 126.154 81.7963 126.493 81.6926C126.993 81.5393 127.518 81.4567 128.054 81.4567C129.529 81.4567 130.864 82.0562 131.831 83.025C132.797 83.9938 133.396 85.3324 133.396 86.8103C133.396 88.2885 132.797 89.6272 131.831 90.5964C130.864 91.5652 129.529 92.1647 128.054 92.1647C127.518 92.1647 126.993 92.0821 126.493 91.9288C126.154 91.8247 125.83 91.69 125.528 91.5276C124.775 91.9342 123.913 92.1647 122.998 92.1647C121.523 92.1647 120.188 91.5652 119.221 90.5964C118.254 89.6276 117.656 88.289 117.656 86.8107C117.656 85.3324 118.254 83.9938 119.221 83.025C120.188 82.0557 121.523 81.4567 122.998 81.4567V81.4567ZM126.996 83.2597C127.832 84.205 128.34 85.4485 128.34 86.8107C128.34 88.1729 127.832 89.4164 126.996 90.3617C127.325 90.4592 127.679 90.5117 128.054 90.5117C129.074 90.5117 129.997 90.0977 130.665 89.428C131.333 88.7583 131.747 87.8328 131.747 86.8103C131.747 85.7881 131.333 84.8627 130.665 84.1934C129.997 83.5237 129.074 83.1093 128.054 83.1093C127.679 83.1093 127.325 83.1622 126.996 83.2597ZM125.61 84.1934C124.942 83.5237 124.018 83.1093 122.998 83.1093C121.978 83.1093 121.055 83.5237 120.387 84.1934C119.719 84.8631 119.305 85.7882 119.305 86.8107C119.305 87.8328 119.719 88.7583 120.387 89.428C121.055 90.0977 121.978 90.5121 122.998 90.5121C124.018 90.5121 124.942 90.0977 125.61 89.428C126.278 88.7583 126.691 87.8328 126.691 86.8107C126.691 85.7882 126.278 84.8631 125.61 84.1934ZM98.6039 87.5779C98.2626 87.5779 97.9856 87.3003 97.9856 86.9582C97.9856 86.6157 98.2626 86.3385 98.6039 86.3385H100.714C101.055 86.3385 101.332 86.6157 101.332 86.9582C101.332 87.3003 101.055 87.5779 100.714 87.5779H98.6039ZM122.594 77.0459C122.252 77.0459 121.976 76.7682 121.976 76.4261C121.976 76.0841 122.252 75.8064 122.594 75.8064H130.553C130.895 75.8064 131.171 76.0841 131.171 76.4261C131.171 76.7682 130.895 77.0459 130.553 77.0459H122.594ZM104.408 77.0459C104.067 77.0459 103.79 76.7682 103.79 76.4261C103.79 76.0841 104.067 75.8064 104.408 75.8064H115.901C116.242 75.8064 116.519 76.0841 116.519 76.4261C116.519 76.7682 116.242 77.0459 115.901 77.0459H104.408ZM80.9787 77.0459C80.6374 77.0459 80.3604 76.7682 80.3604 76.4261C80.3604 76.0841 80.6374 75.8064 80.9787 75.8064L97.7564 75.8064C98.0981 75.8064 98.3747 76.0841 98.3747 76.4261C98.3747 76.7682 98.0981 77.0459 97.7564 77.0459L80.9787 77.0459ZM135.527 69.4542V64.6902L78.5738 64.6902V69.4542L135.527 69.4542ZM135.424 63.0376C135.272 62.4377 134.959 61.9001 134.534 61.4742C133.921 60.8602 133.076 60.4789 132.149 60.4789L81.9511 60.4789C81.0236 60.4789 80.1794 60.8602 79.5668 61.4742C79.1418 61.9001 78.8286 62.4377 78.6764 63.0376L135.424 63.0376V63.0376Z" fill="#333B41"/>
</svg>
