<svg width="168" height="168" viewBox="0 0 168 168" fill="none" xmlns="http://www.w3.org/2000/svg">
<path d="M79.7487 43.264C79.3993 42.9363 79.0498 42.6961 78.7222 42.5213C78.3945 42.3684 78.0232 42.2811 77.6082 42.2811C77.1277 42.2811 76.7782 42.3903 76.5379 42.5869C76.2977 42.7834 76.1666 43.1111 76.1666 43.5479C76.1666 43.8537 76.2977 44.1377 76.5598 44.3342C76.8219 44.5527 77.1277 44.7492 77.5208 44.9458C77.914 45.1424 78.329 45.339 78.7658 45.5574C79.2027 45.7758 79.6177 46.0161 80.0108 46.3219C80.404 46.6277 80.7098 46.9771 80.9719 47.414C81.234 47.8508 81.3651 48.375 81.3651 48.9866C81.3651 49.9258 81.103 50.734 80.6006 51.4111C80.0982 52.0882 79.3119 52.5251 78.3072 52.7653V54.8185H76.4069V52.8527C75.839 52.7872 75.2274 52.6343 74.594 52.3722C73.9606 52.1101 73.4145 51.7824 72.9558 51.3674L74.2227 49.4235C74.725 49.7948 75.2056 50.0787 75.6424 50.2753C76.1011 50.4719 76.5598 50.5593 77.0185 50.5593C77.5645 50.5593 77.9795 50.4501 78.2198 50.2316C78.4819 50.0132 78.6129 49.6637 78.6129 49.2051C78.6129 48.8556 78.4819 48.5716 78.2198 48.3314C77.9577 48.0911 77.6519 47.8727 77.2587 47.6543C76.8656 47.4358 76.4506 47.2174 76.0137 46.999C75.5769 46.7806 75.1619 46.5185 74.7687 46.2127C74.3756 45.9069 74.0698 45.5574 73.8077 45.1424C73.5455 44.7274 73.4145 44.2469 73.4145 43.6571C73.4145 42.6961 73.6766 41.8879 74.2008 41.2545C74.725 40.6211 75.4677 40.2061 76.385 40.0313V38H78.2853V39.9876C78.9187 40.075 79.4648 40.2716 79.9453 40.5555C80.4258 40.8395 80.8408 41.189 81.234 41.604L79.7487 43.264Z" fill="#333B41"/>
<path fill-rule="evenodd" clip-rule="evenodd" d="M126.775 114.001L123.181 111.789L115.164 126.164L119.035 128.099L126.775 114.001Z" fill="#333B41"/>
<path fill-rule="evenodd" clip-rule="evenodd" d="M121.246 111.236C111.847 100.454 103.553 103.219 92.4958 110.406C82.8203 116.764 75.6329 112.341 68.4454 115.382C66.7868 116.211 64.2988 118.147 66.5103 120.082C67.6161 120.911 72.0391 121.74 73.4213 121.464C80.8852 119.805 83.0968 123.122 94.4308 120.911C91.1136 123.399 80.3324 121.74 73.6978 122.57C68.4454 123.675 59.8757 119.529 66.7868 114.829C63.7459 113.447 60.9815 112.618 57.6642 112.341C54.3469 109.853 49.0946 106.812 46.3301 105.707C44.1186 104.324 38.5898 104.877 42.1835 108.471C45.7773 111.788 55.4527 119.252 57.3878 120.358C65.1281 125.058 72.3156 128.375 79.7795 132.521C79.7795 132.521 82.2675 133.904 87.2434 131.969C90.8371 130.31 106.871 121.464 110.741 122.846C112.952 123.675 114.058 124.228 114.058 124.228L121.246 111.236Z" stroke="#333B41" stroke-width="1.5"/>
<path fill-rule="evenodd" clip-rule="evenodd" d="M74.5279 110.406C75.0808 109.3 75.6337 108.471 76.463 108.195C77.2924 107.918 77.5688 108.471 78.1217 109.024C78.6746 109.853 78.951 110.13 79.7803 110.682C80.0568 110.959 80.6096 110.959 80.8861 110.959L80.3332 110.682C79.5039 110.13 78.951 109.577 79.2274 108.471C79.2274 108.195 78.951 107.642 79.5039 107.642C80.0568 107.918 80.8861 108.471 81.7154 108.471C81.7154 108.471 82.5447 108.747 82.2683 108.471C82.2683 108.195 81.7154 107.918 81.439 107.642C79.7803 106.259 79.7803 105.983 79.7803 104.048C80.0568 101.283 78.951 99.072 77.0159 97.1369C72.5929 92.7138 74.5279 86.6321 77.8452 80.8269C80.8861 75.5745 83.6505 74.7452 80.6096 68.387C79.5039 65.6226 77.5688 62.8582 77.2924 61.1996C77.2924 60.6467 77.2924 60.9231 77.2924 61.1996C77.0159 62.8582 78.1217 65.3462 79.2274 67.8342C81.7154 73.363 81.1625 73.9159 77.5688 78.8918C73.6986 83.8677 70.9342 89.1201 72.5929 94.6489C73.6986 98.5191 79.2274 102.389 76.463 104.877C75.0808 105.983 73.1457 108.747 72.8693 110.406C72.5929 111.235 72.5929 111.235 72.3164 111.788C72.04 112.065 72.3164 112.065 72.5929 112.065C73.9751 111.788 73.9751 111.235 74.5279 110.406Z" fill="#333B41"/>
<path d="M92.8429 84.529L93.755 84.2684L93.7981 85.2161C93.9459 88.4683 92.5534 92.3664 90.2642 95.4425C89.0772 97.0375 87.6155 98.4545 85.9547 99.4487C87.0478 99.074 88.2508 98.3838 89.4679 97.1695C92.7026 93.6792 93.5945 89.2419 94.6307 83.5536C93.6652 83.6402 92.7139 83.8564 91.737 84.1392C91.096 84.3247 90.4522 84.5364 89.786 84.757C89.7456 84.7704 89.7052 84.7838 89.6647 84.7972C89.0473 85.0018 88.4107 85.2127 87.7579 85.4089C82.6293 87.3021 79.8538 89.6595 78.8454 92.3645C78.5951 93.654 78.63 94.8192 79.0684 95.696L79.1052 95.7696L79.1251 95.8495C79.2985 96.5427 80 97.1847 80.9413 97.7019C81.9925 96.713 82.7253 95.8297 83.446 94.9124C83.2707 95.0928 83.1068 95.265 82.9519 95.428C82.8261 95.5602 82.7062 95.6863 82.5907 95.8057C82.3944 96.0085 82.2043 96.1985 82.0295 96.3497C81.8721 96.4858 81.6524 96.6584 81.3991 96.7429L81.2102 96.8059L81.0149 96.7668C80.1201 96.5879 79.4476 96.0935 79.1719 95.2664C78.9248 94.5252 79.0477 93.6546 79.3357 92.7803C79.83 90.8473 81.3457 89.3363 83.5888 88.0545C85.8467 86.7643 88.9586 85.6388 92.8429 84.529Z" stroke="#333B41" stroke-width="1.5"/>
<path d="M66.1343 66.3643C64.658 65.8492 63.3721 65.4005 61.9334 65.1376C61.9827 65.3788 62.0312 65.6174 62.0791 65.8534C62.2096 66.4962 62.3362 67.1198 62.4654 67.7246C62.4295 67.2771 62.4219 66.8382 62.4443 66.4123L62.4941 65.4666L63.4033 65.7318C66.7358 66.7037 69.4285 67.6903 71.4055 68.8047C73.1695 69.7989 74.4572 70.9474 75.063 72.3665C74.2231 70.1059 72.012 68.1686 67.6811 66.8948L67.6683 66.8911L67.6556 66.8868C67.1201 66.7083 66.617 66.5328 66.1343 66.3643ZM65.4594 75.3306C64.8747 74.544 64.3596 73.692 63.9278 72.809C64.5336 74.2532 65.3328 75.5474 66.488 76.7026L66.4978 76.7124L66.5073 76.7226C67.1437 77.4079 67.7827 77.8995 68.3998 78.2466C67.2793 77.4579 66.2883 76.4458 65.4594 75.3306ZM75.2387 75.5153C75.6732 74.6464 75.6857 73.8128 75.2762 72.9459C75.5593 73.7323 75.5713 74.5125 75.2858 75.1786C74.9797 75.893 74.3673 76.3874 73.6035 76.5784L73.3916 76.6313L73.1844 76.5623C73.0999 76.5341 73.019 76.4969 72.9429 76.4549C73.117 76.6533 73.3003 76.8554 73.4964 77.0632L73.5161 77.0582C74.4751 76.8185 74.9985 76.4027 75.182 75.6688L75.2019 75.589L75.2387 75.5153Z" stroke="#333B41" stroke-width="1.5"/>
<path d="M90.5566 66.6732C90.2311 67.0618 89.8833 67.4321 89.5153 67.7769C89.6818 67.6372 89.8494 67.4842 90.0175 67.3168C90.2081 67.1065 90.3874 66.892 90.5566 66.6732ZM93.7653 57.4627C93.768 57.448 93.7707 57.4334 93.7734 57.4187C92.2418 57.7171 90.6647 58.1954 88.8887 58.8614L88.8887 58.8615L88.8776 58.8654C85.4003 60.1073 83.4897 61.5076 82.6388 63.3816C83.2182 62.192 84.2605 61.2206 85.7292 60.3769C87.4375 59.3955 89.792 58.5463 92.851 57.712L93.7653 57.4627ZM83.6887 67.1639C83.3879 67.0636 83.128 66.9102 82.9149 66.7121C83.1031 67.0573 83.3626 67.3412 83.7254 67.5207C83.8308 67.4111 83.9321 67.3035 84.03 67.1976C83.996 67.2007 83.9612 67.2024 83.9258 67.2024H83.8041L83.6887 67.1639Z" stroke="#333B41" stroke-width="1.5"/>
</svg>
